<?xml version="1.0" encoding="UTF-8" standalone="no"?>
<!DOCTYPE svg PUBLIC "-//W3C//DTD SVG 1.1//EN"
 "http://www.w3.org/Graphics/SVG/1.1/DTD/svg11.dtd">
<!-- Generated by graphviz version 2.47.0 (20210316.0004)
 -->
<!-- Title: dependencies Pages: 1 -->
<svg width="504pt" height="211pt"
 viewBox="0.00 0.00 504.00 211.00" xmlns="http://www.w3.org/2000/svg" xmlns:xlink="http://www.w3.org/1999/xlink">
<g id="graph0" class="graph" transform="scale(1 1) rotate(0) translate(4 207)">
<title>dependencies</title>
<polygon fill="white" stroke="transparent" points="-4,4 -4,-207 500,-207 500,4 -4,4"/>
<text text-anchor="start" x="227.01" y="-42.4" font-family="Times-12" font-weight="bold" font-size="14.00">Legend</text>
<polygon fill="#ffffb3" stroke="transparent" points="14,-10 14,-30 34,-30 34,-10 14,-10"/>
<text text-anchor="start" x="37.63" y="-15.4" font-family="Times-12" font-size="14.00"> &#160;Declarations</text>
<polygon fill="#8dd3c7" stroke="transparent" points="127,-10 127,-30 147,-30 147,-10 127,-10"/>
<text text-anchor="start" x="150.73" y="-15.4" font-family="Times-12" font-size="14.00"> &#160;Module</text>
<polygon fill="#80b1d3" stroke="transparent" points="213,-10 213,-30 233,-30 233,-10 213,-10"/>
<text text-anchor="start" x="236.78" y="-15.4" font-family="Times-12" font-size="14.00"> &#160;Bootstrap</text>
<polygon fill="#fdb462" stroke="transparent" points="310,-10 310,-30 330,-30 330,-10 310,-10"/>
<text text-anchor="start" x="333.67" y="-15.4" font-family="Times-12" font-size="14.00"> &#160;Providers</text>
<polygon fill="#fb8072" stroke="transparent" points="406,-10 406,-30 426,-30 426,-10 406,-10"/>
<text text-anchor="start" x="429.73" y="-15.4" font-family="Times-12" font-size="14.00"> &#160;Exports</text>
<g id="clust1" class="cluster">
<title>cluster_DeliveriesModule</title>
<polygon fill="none" stroke="black" stroke-dasharray="1,5" points="100,-70 100,-195 396,-195 396,-70 100,-70"/>
</g>
<g id="clust6" class="cluster">
<title>cluster_DeliveriesModule_providers</title>
<polygon fill="none" stroke="black" points="224,-78 224,-130 388,-130 388,-78 224,-78"/>
</g>
<g id="clust3" class="cluster">
<title>cluster_DeliveriesModule_imports</title>
<polygon fill="none" stroke="black" points="108,-78 108,-130 216,-130 216,-78 108,-78"/>
</g>
<!-- UsersModule -->
<g id="node1" class="node">
<title>UsersModule</title>
<polygon fill="#8dd3c7" stroke="black" points="207.92,-122 204.92,-126 183.92,-126 180.92,-122 116.08,-122 116.08,-86 207.92,-86 207.92,-122"/>
<text text-anchor="middle" x="162" y="-99.8" font-family="Times,serif" font-size="14.00">UsersModule</text>
</g>
<!-- DeliveriesModule -->
<g id="node2" class="node">
<title>DeliveriesModule</title>
<polygon fill="#8dd3c7" stroke="black" points="294.58,-187 291.58,-191 270.58,-191 267.58,-187 177.42,-187 177.42,-151 294.58,-151 294.58,-187"/>
<text text-anchor="middle" x="236" y="-164.8" font-family="Times,serif" font-size="14.00">DeliveriesModule</text>
</g>
<!-- UsersModule&#45;&gt;DeliveriesModule -->
<g id="edge1" class="edge">
<title>UsersModule&#45;&gt;DeliveriesModule</title>
<path fill="none" stroke="black" d="M192.59,-122.11C192.59,-122.11 192.59,-140.99 192.59,-140.99"/>
<polygon fill="black" stroke="black" points="189.09,-140.99 192.59,-150.99 196.09,-140.99 189.09,-140.99"/>
</g>
<!-- DeliveryService -->
<g id="node3" class="node">
<title>DeliveryService</title>
<ellipse fill="#fdb462" stroke="black" cx="306" cy="-104" rx="73.55" ry="18"/>
<text text-anchor="middle" x="306" y="-99.8" font-family="Times,serif" font-size="14.00">DeliveryService</text>
</g>
<!-- DeliveryService&#45;&gt;DeliveriesModule -->
<g id="edge2" class="edge">
<title>DeliveryService&#45;&gt;DeliveriesModule</title>
<path fill="none" stroke="black" d="M263.38,-118.75C263.38,-118.75 263.38,-140.59 263.38,-140.59"/>
<polygon fill="black" stroke="black" points="259.88,-140.59 263.38,-150.59 266.88,-140.59 259.88,-140.59"/>
</g>
</g>
</svg>
