<?xml version="1.0" encoding="UTF-8" standalone="no"?>
<!DOCTYPE svg PUBLIC "-//W3C//DTD SVG 1.1//EN"
 "http://www.w3.org/Graphics/SVG/1.1/DTD/svg11.dtd">
<!-- Generated by graphviz version 2.47.0 (20210316.0004)
 -->
<!-- Title: dependencies Pages: 1 -->
<svg width="946pt" height="211pt"
 viewBox="0.00 0.00 946.00 211.00" xmlns="http://www.w3.org/2000/svg" xmlns:xlink="http://www.w3.org/1999/xlink">
<g id="graph0" class="graph" transform="scale(1 1) rotate(0) translate(4 207)">
<title>dependencies</title>
<polygon fill="white" stroke="transparent" points="-4,4 -4,-207 942,-207 942,4 -4,4"/>
<text text-anchor="start" x="448.01" y="-42.4" font-family="Times-12" font-weight="bold" font-size="14.00">Legend</text>
<polygon fill="#ffffb3" stroke="transparent" points="235,-10 235,-30 255,-30 255,-10 235,-10"/>
<text text-anchor="start" x="258.63" y="-15.4" font-family="Times-12" font-size="14.00"> &#160;Declarations</text>
<polygon fill="#8dd3c7" stroke="transparent" points="348,-10 348,-30 368,-30 368,-10 348,-10"/>
<text text-anchor="start" x="371.73" y="-15.4" font-family="Times-12" font-size="14.00"> &#160;Module</text>
<polygon fill="#80b1d3" stroke="transparent" points="434,-10 434,-30 454,-30 454,-10 434,-10"/>
<text text-anchor="start" x="457.78" y="-15.4" font-family="Times-12" font-size="14.00"> &#160;Bootstrap</text>
<polygon fill="#fdb462" stroke="transparent" points="531,-10 531,-30 551,-30 551,-10 531,-10"/>
<text text-anchor="start" x="554.67" y="-15.4" font-family="Times-12" font-size="14.00"> &#160;Providers</text>
<polygon fill="#fb8072" stroke="transparent" points="627,-10 627,-30 647,-30 647,-10 627,-10"/>
<text text-anchor="start" x="650.73" y="-15.4" font-family="Times-12" font-size="14.00"> &#160;Exports</text>
<g id="clust1" class="cluster">
<title>cluster_AddressModule</title>
<polygon fill="none" stroke="black" stroke-dasharray="1,5" points="8,-70 8,-195 930,-195 930,-70 8,-70"/>
</g>
<g id="clust6" class="cluster">
<title>cluster_AddressModule_providers</title>
<polygon fill="none" stroke="black" points="132,-78 132,-130 922,-130 922,-78 132,-78"/>
</g>
<g id="clust3" class="cluster">
<title>cluster_AddressModule_imports</title>
<polygon fill="none" stroke="black" points="16,-78 16,-130 124,-130 124,-78 16,-78"/>
</g>
<!-- UsersModule -->
<g id="node1" class="node">
<title>UsersModule</title>
<polygon fill="#8dd3c7" stroke="black" points="115.92,-122 112.92,-126 91.92,-126 88.92,-122 24.08,-122 24.08,-86 115.92,-86 115.92,-122"/>
<text text-anchor="middle" x="70" y="-99.8" font-family="Times,serif" font-size="14.00">UsersModule</text>
</g>
<!-- AddressModule -->
<g id="node2" class="node">
<title>AddressModule</title>
<polygon fill="#8dd3c7" stroke="black" points="494.92,-187 491.92,-191 470.92,-191 467.92,-187 389.08,-187 389.08,-151 494.92,-151 494.92,-187"/>
<text text-anchor="middle" x="442" y="-164.8" font-family="Times,serif" font-size="14.00">AddressModule</text>
</g>
<!-- UsersModule&#45;&gt;AddressModule -->
<g id="edge1" class="edge">
<title>UsersModule&#45;&gt;AddressModule</title>
<path fill="none" stroke="black" d="M70,-122.28C70,-143.32 70,-175 70,-175 70,-175 379.1,-175 379.1,-175"/>
<polygon fill="black" stroke="black" points="379.1,-178.5 389.1,-175 379.1,-171.5 379.1,-178.5"/>
</g>
<!-- AddressService -->
<g id="node3" class="node">
<title>AddressService</title>
<ellipse fill="#fdb462" stroke="black" cx="842" cy="-104" rx="71.77" ry="18"/>
<text text-anchor="middle" x="842" y="-99.8" font-family="Times,serif" font-size="14.00">AddressService</text>
</g>
<!-- AddressService&#45;&gt;AddressModule -->
<g id="edge2" class="edge">
<title>AddressService&#45;&gt;AddressModule</title>
<path fill="none" stroke="black" d="M842,-122.28C842,-143.32 842,-175 842,-175 842,-175 505.12,-175 505.12,-175"/>
<polygon fill="black" stroke="black" points="505.12,-171.5 495.12,-175 505.12,-178.5 505.12,-171.5"/>
</g>
<!-- CreateAddressProvider -->
<g id="node4" class="node">
<title>CreateAddressProvider</title>
<ellipse fill="#fdb462" stroke="black" cx="651" cy="-104" rx="101.26" ry="18"/>
<text text-anchor="middle" x="651" y="-99.8" font-family="Times,serif" font-size="14.00">CreateAddressProvider</text>
</g>
<!-- CreateAddressProvider&#45;&gt;AddressModule -->
<g id="edge3" class="edge">
<title>CreateAddressProvider&#45;&gt;AddressModule</title>
<path fill="none" stroke="black" d="M651,-122.02C651,-139.37 651,-163 651,-163 651,-163 504.74,-163 504.74,-163"/>
<polygon fill="black" stroke="black" points="504.74,-159.5 494.74,-163 504.74,-166.5 504.74,-159.5"/>
</g>
<!-- GetAddressProvider -->
<g id="node5" class="node">
<title>GetAddressProvider</title>
<ellipse fill="#fdb462" stroke="black" cx="442" cy="-104" rx="89.75" ry="18"/>
<text text-anchor="middle" x="442" y="-99.8" font-family="Times,serif" font-size="14.00">GetAddressProvider</text>
</g>
<!-- GetAddressProvider&#45;&gt;AddressModule -->
<g id="edge4" class="edge">
<title>GetAddressProvider&#45;&gt;AddressModule</title>
<path fill="none" stroke="black" d="M442,-122.11C442,-122.11 442,-140.99 442,-140.99"/>
<polygon fill="black" stroke="black" points="438.5,-140.99 442,-150.99 445.5,-140.99 438.5,-140.99"/>
</g>
<!-- PatchAddressProvider -->
<g id="node6" class="node">
<title>PatchAddressProvider</title>
<ellipse fill="#fdb462" stroke="black" cx="237" cy="-104" rx="97.27" ry="18"/>
<text text-anchor="middle" x="237" y="-99.8" font-family="Times,serif" font-size="14.00">PatchAddressProvider</text>
</g>
<!-- PatchAddressProvider&#45;&gt;AddressModule -->
<g id="edge5" class="edge">
<title>PatchAddressProvider&#45;&gt;AddressModule</title>
<path fill="none" stroke="black" d="M237,-122.02C237,-139.37 237,-163 237,-163 237,-163 379.21,-163 379.21,-163"/>
<polygon fill="black" stroke="black" points="379.21,-166.5 389.21,-163 379.21,-159.5 379.21,-166.5"/>
</g>
</g>
</svg>
