<?xml version="1.0" encoding="UTF-8" standalone="no"?>
<!DOCTYPE svg PUBLIC "-//W3C//DTD SVG 1.1//EN"
 "http://www.w3.org/Graphics/SVG/1.1/DTD/svg11.dtd">
<!-- Generated by graphviz version 2.47.0 (20210316.0004)
 -->
<!-- Title: dependencies Pages: 1 -->
<svg width="1014pt" height="211pt"
 viewBox="0.00 0.00 1014.00 211.00" xmlns="http://www.w3.org/2000/svg" xmlns:xlink="http://www.w3.org/1999/xlink">
<g id="graph0" class="graph" transform="scale(1 1) rotate(0) translate(4 207)">
<title>dependencies</title>
<polygon fill="white" stroke="transparent" points="-4,4 -4,-207 1010,-207 1010,4 -4,4"/>
<text text-anchor="start" x="482.01" y="-42.4" font-family="Times-12" font-weight="bold" font-size="14.00">Legend</text>
<polygon fill="#ffffb3" stroke="transparent" points="269,-10 269,-30 289,-30 289,-10 269,-10"/>
<text text-anchor="start" x="292.63" y="-15.4" font-family="Times-12" font-size="14.00"> &#160;Declarations</text>
<polygon fill="#8dd3c7" stroke="transparent" points="382,-10 382,-30 402,-30 402,-10 382,-10"/>
<text text-anchor="start" x="405.73" y="-15.4" font-family="Times-12" font-size="14.00"> &#160;Module</text>
<polygon fill="#80b1d3" stroke="transparent" points="468,-10 468,-30 488,-30 488,-10 468,-10"/>
<text text-anchor="start" x="491.78" y="-15.4" font-family="Times-12" font-size="14.00"> &#160;Bootstrap</text>
<polygon fill="#fdb462" stroke="transparent" points="565,-10 565,-30 585,-30 585,-10 565,-10"/>
<text text-anchor="start" x="588.67" y="-15.4" font-family="Times-12" font-size="14.00"> &#160;Providers</text>
<polygon fill="#fb8072" stroke="transparent" points="661,-10 661,-30 681,-30 681,-10 661,-10"/>
<text text-anchor="start" x="684.73" y="-15.4" font-family="Times-12" font-size="14.00"> &#160;Exports</text>
<g id="clust1" class="cluster">
<title>cluster_AppModule</title>
<polygon fill="none" stroke="black" stroke-dasharray="1,5" points="8,-70 8,-195 998,-195 998,-70 8,-70"/>
</g>
<g id="clust6" class="cluster">
<title>cluster_AppModule_providers</title>
<polygon fill="none" stroke="black" points="860,-78 860,-130 990,-130 990,-78 860,-78"/>
</g>
<g id="clust3" class="cluster">
<title>cluster_AppModule_imports</title>
<polygon fill="none" stroke="black" points="16,-78 16,-130 852,-130 852,-78 16,-78"/>
</g>
<!-- AddressModule -->
<g id="node1" class="node">
<title>AddressModule</title>
<polygon fill="#8dd3c7" stroke="black" points="843.92,-122 840.92,-126 819.92,-126 816.92,-122 738.08,-122 738.08,-86 843.92,-86 843.92,-122"/>
<text text-anchor="middle" x="791" y="-99.8" font-family="Times,serif" font-size="14.00">AddressModule</text>
</g>
<!-- AppModule -->
<g id="node8" class="node">
<title>AppModule</title>
<polygon fill="#8dd3c7" stroke="black" points="535.66,-187 532.66,-191 511.66,-191 508.66,-187 452.34,-187 452.34,-151 535.66,-151 535.66,-187"/>
<text text-anchor="middle" x="494" y="-164.8" font-family="Times,serif" font-size="14.00">AppModule</text>
</g>
<!-- AddressModule&#45;&gt;AppModule -->
<g id="edge1" class="edge">
<title>AddressModule&#45;&gt;AppModule</title>
<path fill="none" stroke="black" d="M791,-122.11C791,-141.34 791,-169 791,-169 791,-169 545.92,-169 545.92,-169"/>
<polygon fill="black" stroke="black" points="545.92,-165.5 535.92,-169 545.92,-172.5 545.92,-165.5"/>
</g>
<!-- AuthModule -->
<g id="node2" class="node">
<title>AuthModule</title>
<polygon fill="#8dd3c7" stroke="black" points="720.55,-122 717.55,-126 696.55,-126 693.55,-122 633.45,-122 633.45,-86 720.55,-86 720.55,-122"/>
<text text-anchor="middle" x="677" y="-99.8" font-family="Times,serif" font-size="14.00">AuthModule</text>
</g>
<!-- AuthModule&#45;&gt;AppModule -->
<g id="edge2" class="edge">
<title>AuthModule&#45;&gt;AppModule</title>
<path fill="none" stroke="black" d="M677,-122.03C677,-138.4 677,-160 677,-160 677,-160 545.98,-160 545.98,-160"/>
<polygon fill="black" stroke="black" points="545.98,-156.5 535.98,-160 545.98,-163.5 545.98,-156.5"/>
</g>
<!-- DeliveriesModule -->
<g id="node3" class="node">
<title>DeliveriesModule</title>
<polygon fill="#8dd3c7" stroke="black" points="615.58,-122 612.58,-126 591.58,-126 588.58,-122 498.42,-122 498.42,-86 615.58,-86 615.58,-122"/>
<text text-anchor="middle" x="557" y="-99.8" font-family="Times,serif" font-size="14.00">DeliveriesModule</text>
</g>
<!-- DeliveriesModule&#45;&gt;AppModule -->
<g id="edge3" class="edge">
<title>DeliveriesModule&#45;&gt;AppModule</title>
<path fill="none" stroke="black" d="M517.14,-122.11C517.14,-122.11 517.14,-140.99 517.14,-140.99"/>
<polygon fill="black" stroke="black" points="513.64,-140.99 517.14,-150.99 520.64,-140.99 513.64,-140.99"/>
</g>
<!-- OrdersModule -->
<g id="node4" class="node">
<title>OrdersModule</title>
<polygon fill="#8dd3c7" stroke="black" points="480.64,-122 477.64,-126 456.64,-126 453.64,-122 383.36,-122 383.36,-86 480.64,-86 480.64,-122"/>
<text text-anchor="middle" x="432" y="-99.8" font-family="Times,serif" font-size="14.00">OrdersModule</text>
</g>
<!-- OrdersModule&#45;&gt;AppModule -->
<g id="edge4" class="edge">
<title>OrdersModule&#45;&gt;AppModule</title>
<path fill="none" stroke="black" d="M466.5,-122.11C466.5,-122.11 466.5,-140.99 466.5,-140.99"/>
<polygon fill="black" stroke="black" points="463,-140.99 466.5,-150.99 470,-140.99 463,-140.99"/>
</g>
<!-- ProductsModule -->
<g id="node5" class="node">
<title>ProductsModule</title>
<polygon fill="#8dd3c7" stroke="black" points="365.04,-122 362.04,-126 341.04,-126 338.04,-122 256.96,-122 256.96,-86 365.04,-86 365.04,-122"/>
<text text-anchor="middle" x="311" y="-99.8" font-family="Times,serif" font-size="14.00">ProductsModule</text>
</g>
<!-- ProductsModule&#45;&gt;AppModule -->
<g id="edge5" class="edge">
<title>ProductsModule&#45;&gt;AppModule</title>
<path fill="none" stroke="black" d="M311,-122.03C311,-138.4 311,-160 311,-160 311,-160 442.02,-160 442.02,-160"/>
<polygon fill="black" stroke="black" points="442.02,-163.5 452.02,-160 442.02,-156.5 442.02,-163.5"/>
</g>
<!-- SettingsModule -->
<g id="node6" class="node">
<title>SettingsModule</title>
<polygon fill="#8dd3c7" stroke="black" points="238.16,-122 235.16,-126 214.16,-126 211.16,-122 133.84,-122 133.84,-86 238.16,-86 238.16,-122"/>
<text text-anchor="middle" x="186" y="-99.8" font-family="Times,serif" font-size="14.00">SettingsModule</text>
</g>
<!-- SettingsModule&#45;&gt;AppModule -->
<g id="edge6" class="edge">
<title>SettingsModule&#45;&gt;AppModule</title>
<path fill="none" stroke="black" d="M186,-122.11C186,-141.34 186,-169 186,-169 186,-169 442.14,-169 442.14,-169"/>
<polygon fill="black" stroke="black" points="442.14,-172.5 452.14,-169 442.14,-165.5 442.14,-172.5"/>
</g>
<!-- UsersModule -->
<g id="node7" class="node">
<title>UsersModule</title>
<polygon fill="#8dd3c7" stroke="black" points="115.92,-122 112.92,-126 91.92,-126 88.92,-122 24.08,-122 24.08,-86 115.92,-86 115.92,-122"/>
<text text-anchor="middle" x="70" y="-99.8" font-family="Times,serif" font-size="14.00">UsersModule</text>
</g>
<!-- UsersModule&#45;&gt;AppModule -->
<g id="edge7" class="edge">
<title>UsersModule&#45;&gt;AppModule</title>
<path fill="none" stroke="black" d="M70,-122.29C70,-144.21 70,-178 70,-178 70,-178 442.18,-178 442.18,-178"/>
<polygon fill="black" stroke="black" points="442.18,-181.5 452.18,-178 442.18,-174.5 442.18,-181.5"/>
</g>
<!-- AppService -->
<g id="node9" class="node">
<title>AppService</title>
<ellipse fill="#fdb462" stroke="black" cx="925" cy="-104" rx="56.74" ry="18"/>
<text text-anchor="middle" x="925" y="-99.8" font-family="Times,serif" font-size="14.00">AppService</text>
</g>
<!-- AppService&#45;&gt;AppModule -->
<g id="edge8" class="edge">
<title>AppService&#45;&gt;AppModule</title>
<path fill="none" stroke="black" d="M925,-122.29C925,-144.21 925,-178 925,-178 925,-178 545.72,-178 545.72,-178"/>
<polygon fill="black" stroke="black" points="545.72,-174.5 535.72,-178 545.72,-181.5 545.72,-174.5"/>
</g>
</g>
</svg>
