<?xml version="1.0" encoding="UTF-8" standalone="no"?>
<!DOCTYPE svg PUBLIC "-//W3C//DTD SVG 1.1//EN"
 "http://www.w3.org/Graphics/SVG/1.1/DTD/svg11.dtd">
<!-- Generated by graphviz version 2.47.0 (20210316.0004)
 -->
<!-- Title: dependencies Pages: 1 -->
<svg width="2194pt" height="355pt"
 viewBox="0.00 0.00 2194.00 355.00" xmlns="http://www.w3.org/2000/svg" xmlns:xlink="http://www.w3.org/1999/xlink">
<g id="graph0" class="graph" transform="scale(1 1) rotate(0) translate(4 351)">
<title>dependencies</title>
<polygon fill="white" stroke="transparent" points="-4,4 -4,-351 2190,-351 2190,4 -4,4"/>
<text text-anchor="start" x="1072.01" y="-42.4" font-family="Times-12" font-weight="bold" font-size="14.00">Legend</text>
<polygon fill="#ffffb3" stroke="transparent" points="859,-10 859,-30 879,-30 879,-10 859,-10"/>
<text text-anchor="start" x="882.63" y="-15.4" font-family="Times-12" font-size="14.00"> &#160;Declarations</text>
<polygon fill="#8dd3c7" stroke="transparent" points="972,-10 972,-30 992,-30 992,-10 972,-10"/>
<text text-anchor="start" x="995.73" y="-15.4" font-family="Times-12" font-size="14.00"> &#160;Module</text>
<polygon fill="#80b1d3" stroke="transparent" points="1058,-10 1058,-30 1078,-30 1078,-10 1058,-10"/>
<text text-anchor="start" x="1081.78" y="-15.4" font-family="Times-12" font-size="14.00"> &#160;Bootstrap</text>
<polygon fill="#fdb462" stroke="transparent" points="1155,-10 1155,-30 1175,-30 1175,-10 1155,-10"/>
<text text-anchor="start" x="1178.67" y="-15.4" font-family="Times-12" font-size="14.00"> &#160;Providers</text>
<polygon fill="#fb8072" stroke="transparent" points="1251,-10 1251,-30 1271,-30 1271,-10 1251,-10"/>
<text text-anchor="start" x="1274.73" y="-15.4" font-family="Times-12" font-size="14.00"> &#160;Exports</text>
<g id="clust1" class="cluster">
<title>cluster_AddressModule</title>
<polygon fill="none" stroke="black" stroke-dasharray="1,5" points="8,-138 8,-274 930,-274 930,-138 8,-138"/>
</g>
<g id="clust3" class="cluster">
<title>cluster_AddressModule_imports</title>
<polygon fill="none" stroke="black" points="814,-146 814,-198 922,-198 922,-146 814,-146"/>
</g>
<g id="clust6" class="cluster">
<title>cluster_AddressModule_providers</title>
<polygon fill="none" stroke="black" points="16,-146 16,-198 806,-198 806,-146 16,-146"/>
</g>
<g id="clust7" class="cluster">
<title>cluster_AppModule</title>
<polygon fill="none" stroke="black" stroke-dasharray="1,5" points="1220,-214 1220,-339 1978,-339 1978,-214 1220,-214"/>
</g>
<g id="clust9" class="cluster">
<title>cluster_AppModule_imports</title>
<polygon fill="none" stroke="black" points="1366,-222 1366,-274 1970,-274 1970,-222 1366,-222"/>
</g>
<g id="clust12" class="cluster">
<title>cluster_AppModule_providers</title>
<polygon fill="none" stroke="black" points="1228,-222 1228,-274 1358,-274 1358,-222 1228,-222"/>
</g>
<g id="clust13" class="cluster">
<title>cluster_AuthModule</title>
<polygon fill="none" stroke="black" stroke-dasharray="1,5" points="1103,-138 1103,-206 1367,-206 1367,-138 1103,-138"/>
</g>
<g id="clust16" class="cluster">
<title>cluster_AuthModule_exports</title>
<polygon fill="none" stroke="black" points="1253,-146 1253,-198 1359,-198 1359,-146 1253,-146"/>
</g>
<g id="clust18" class="cluster">
<title>cluster_AuthModule_providers</title>
<polygon fill="none" stroke="black" points="1111,-146 1111,-198 1245,-198 1245,-146 1111,-146"/>
</g>
<g id="clust19" class="cluster">
<title>cluster_DeliveriesModule</title>
<polygon fill="none" stroke="black" stroke-dasharray="1,5" points="1375,-138 1375,-206 1555,-206 1555,-138 1375,-138"/>
</g>
<g id="clust24" class="cluster">
<title>cluster_DeliveriesModule_providers</title>
<polygon fill="none" stroke="black" points="1383,-146 1383,-198 1547,-198 1547,-146 1383,-146"/>
</g>
<g id="clust25" class="cluster">
<title>cluster_GeneralSettingsModule</title>
<polygon fill="none" stroke="black" stroke-dasharray="1,5" points="1563,-70 1563,-198 1799,-198 1799,-70 1563,-70"/>
</g>
<g id="clust30" class="cluster">
<title>cluster_GeneralSettingsModule_providers</title>
<polygon fill="none" stroke="black" points="1571,-78 1571,-130 1791,-130 1791,-78 1571,-78"/>
</g>
<g id="clust31" class="cluster">
<title>cluster_OrdersModule</title>
<polygon fill="none" stroke="black" stroke-dasharray="1,5" points="1826,-138 1826,-206 1990,-206 1990,-138 1826,-138"/>
</g>
<g id="clust36" class="cluster">
<title>cluster_OrdersModule_providers</title>
<polygon fill="none" stroke="black" points="1834,-146 1834,-198 1982,-198 1982,-146 1834,-146"/>
</g>
<g id="clust37" class="cluster">
<title>cluster_ProductsModule</title>
<polygon fill="none" stroke="black" stroke-dasharray="1,5" points="1998,-138 1998,-206 2178,-206 2178,-138 1998,-138"/>
</g>
<g id="clust42" class="cluster">
<title>cluster_ProductsModule_providers</title>
<polygon fill="none" stroke="black" points="2006,-146 2006,-198 2170,-198 2170,-146 2006,-146"/>
</g>
<g id="clust49" class="cluster">
<title>cluster_UsersModule</title>
<polygon fill="none" stroke="black" stroke-dasharray="1,5" points="938,-214 938,-282 1212,-282 1212,-214 938,-214"/>
</g>
<g id="clust52" class="cluster">
<title>cluster_UsersModule_exports</title>
<polygon fill="none" stroke="black" points="1094,-222 1094,-274 1204,-274 1204,-222 1094,-222"/>
</g>
<g id="clust54" class="cluster">
<title>cluster_UsersModule_providers</title>
<polygon fill="none" stroke="black" points="946,-222 946,-274 1086,-274 1086,-222 946,-222"/>
</g>
<!-- UsersModule -->
<g id="node1" class="node">
<title>UsersModule</title>
<polygon fill="#8dd3c7" stroke="black" points="913.92,-190 910.92,-194 889.92,-194 886.92,-190 822.08,-190 822.08,-154 913.92,-154 913.92,-190"/>
<text text-anchor="middle" x="868" y="-167.8" font-family="Times,serif" font-size="14.00">UsersModule</text>
</g>
<!-- AddressModule -->
<g id="node2" class="node">
<title>AddressModule</title>
<polygon fill="#8dd3c7" stroke="black" points="657.92,-266 654.92,-270 633.92,-270 630.92,-266 552.08,-266 552.08,-230 657.92,-230 657.92,-266"/>
<text text-anchor="middle" x="605" y="-243.8" font-family="Times,serif" font-size="14.00">AddressModule</text>
</g>
<!-- UsersModule&#45;&gt;AddressModule -->
<g id="edge1" class="edge">
<title>UsersModule&#45;&gt;AddressModule</title>
<path fill="none" stroke="black" d="M837.53,-190.03C837.53,-210.77 837.53,-242 837.53,-242 837.53,-242 667.76,-242 667.76,-242"/>
<polygon fill="black" stroke="black" points="667.76,-238.5 657.76,-242 667.76,-245.5 667.76,-238.5"/>
</g>
<!-- DeliveriesModule -->
<g id="node8" class="node">
<title>DeliveriesModule</title>
<polygon fill="#8dd3c7" stroke="black" points="1491.58,-266 1488.58,-270 1467.58,-270 1464.58,-266 1374.42,-266 1374.42,-230 1491.58,-230 1491.58,-266"/>
<text text-anchor="middle" x="1433" y="-243.8" font-family="Times,serif" font-size="14.00">DeliveriesModule</text>
</g>
<!-- UsersModule&#45;&gt;DeliveriesModule -->
<g id="edge16" class="edge">
<title>UsersModule&#45;&gt;DeliveriesModule</title>
<path fill="none" stroke="black" d="M868,-190.19C868,-205.18 868,-224 868,-224 868,-224 1382.84,-224 1382.84,-224 1382.84,-224 1382.84,-224.58 1382.84,-224.58"/>
<polygon fill="black" stroke="black" points="1379.34,-219.81 1382.84,-229.81 1386.34,-219.81 1379.34,-219.81"/>
</g>
<!-- ProductsModule -->
<g id="node10" class="node">
<title>ProductsModule</title>
<polygon fill="#8dd3c7" stroke="black" points="1846.04,-266 1843.04,-270 1822.04,-270 1819.04,-266 1737.96,-266 1737.96,-230 1846.04,-230 1846.04,-266"/>
<text text-anchor="middle" x="1792" y="-243.8" font-family="Times,serif" font-size="14.00">ProductsModule</text>
</g>
<!-- UsersModule&#45;&gt;ProductsModule -->
<g id="edge20" class="edge">
<title>UsersModule&#45;&gt;ProductsModule</title>
<path fill="none" stroke="black" d="M883.24,-190.17C883.24,-194.05 883.24,-197 883.24,-197 883.24,-197 1742.11,-197 1742.11,-197 1742.11,-197 1742.11,-219.88 1742.11,-219.88"/>
<polygon fill="black" stroke="black" points="1738.61,-219.88 1742.11,-229.88 1745.61,-219.88 1738.61,-219.88"/>
</g>
<!-- AppModule -->
<g id="node12" class="node">
<title>AppModule</title>
<polygon fill="#8dd3c7" stroke="black" points="1534.66,-331 1531.66,-335 1510.66,-335 1507.66,-331 1451.34,-331 1451.34,-295 1534.66,-295 1534.66,-331"/>
<text text-anchor="middle" x="1493" y="-308.8" font-family="Times,serif" font-size="14.00">AppModule</text>
</g>
<!-- UsersModule&#45;&gt;AppModule -->
<g id="edge12" class="edge">
<title>UsersModule&#45;&gt;AppModule</title>
<path fill="none" stroke="black" d="M852.76,-190.14C852.76,-228.23 852.76,-313 852.76,-313 852.76,-313 1440.99,-313 1440.99,-313"/>
<polygon fill="black" stroke="black" points="1440.99,-316.5 1450.99,-313 1440.99,-309.5 1440.99,-316.5"/>
</g>
<!-- UsersService  -->
<g id="node21" class="node">
<title>UsersService </title>
<polygon fill="#fb8072" stroke="black" points="1195.85,-266 1102.15,-266 1102.15,-230 1195.85,-230 1195.85,-266"/>
<text text-anchor="middle" x="1149" y="-243.8" font-family="Times,serif" font-size="14.00">UsersService </text>
</g>
<!-- UsersModule&#45;&gt;UsersService  -->
<g id="edge23" class="edge">
<title>UsersModule&#45;&gt;UsersService </title>
<path fill="none" stroke="black" stroke-dasharray="5,2" d="M913.9,-172C984.21,-172 1110.51,-172 1110.51,-172 1110.51,-172 1110.51,-219.99 1110.51,-219.99"/>
<polygon fill="black" stroke="black" points="1107.01,-219.99 1110.51,-229.99 1114.01,-219.99 1107.01,-219.99"/>
</g>
<!-- AddressModule&#45;&gt;AppModule -->
<g id="edge6" class="edge">
<title>AddressModule&#45;&gt;AppModule</title>
<path fill="none" stroke="black" d="M605,-266.29C605,-288.21 605,-322 605,-322 605,-322 1441.06,-322 1441.06,-322"/>
<polygon fill="black" stroke="black" points="1441.06,-325.5 1451.06,-322 1441.06,-318.5 1441.06,-325.5"/>
</g>
<!-- AddressService -->
<g id="node3" class="node">
<title>AddressService</title>
<ellipse fill="#fdb462" stroke="black" cx="316" cy="-172" rx="71.77" ry="18"/>
<text text-anchor="middle" x="316" y="-167.8" font-family="Times,serif" font-size="14.00">AddressService</text>
</g>
<!-- AddressService&#45;&gt;AddressModule -->
<g id="edge2" class="edge">
<title>AddressService&#45;&gt;AddressModule</title>
<path fill="none" stroke="black" d="M316,-190.03C316,-210.77 316,-242 316,-242 316,-242 541.99,-242 541.99,-242"/>
<polygon fill="black" stroke="black" points="541.99,-245.5 551.99,-242 541.99,-238.5 541.99,-245.5"/>
</g>
<!-- CreateAddressProvider -->
<g id="node4" class="node">
<title>CreateAddressProvider</title>
<ellipse fill="#fdb462" stroke="black" cx="125" cy="-172" rx="101.26" ry="18"/>
<text text-anchor="middle" x="125" y="-167.8" font-family="Times,serif" font-size="14.00">CreateAddressProvider</text>
</g>
<!-- CreateAddressProvider&#45;&gt;AddressModule -->
<g id="edge3" class="edge">
<title>CreateAddressProvider&#45;&gt;AddressModule</title>
<path fill="none" stroke="black" d="M125,-190.2C125,-214.36 125,-254 125,-254 125,-254 542.26,-254 542.26,-254"/>
<polygon fill="black" stroke="black" points="542.26,-257.5 552.26,-254 542.26,-250.5 542.26,-257.5"/>
</g>
<!-- GetAddressProvider -->
<g id="node5" class="node">
<title>GetAddressProvider</title>
<ellipse fill="#fdb462" stroke="black" cx="708" cy="-172" rx="89.75" ry="18"/>
<text text-anchor="middle" x="708" y="-167.8" font-family="Times,serif" font-size="14.00">GetAddressProvider</text>
</g>
<!-- GetAddressProvider&#45;&gt;AddressModule -->
<g id="edge4" class="edge">
<title>GetAddressProvider&#45;&gt;AddressModule</title>
<path fill="none" stroke="black" d="M637.92,-183.54C637.92,-183.54 637.92,-219.83 637.92,-219.83"/>
<polygon fill="black" stroke="black" points="634.42,-219.83 637.92,-229.83 641.42,-219.83 634.42,-219.83"/>
</g>
<!-- PatchAddressProvider -->
<g id="node6" class="node">
<title>PatchAddressProvider</title>
<ellipse fill="#fdb462" stroke="black" cx="503" cy="-172" rx="97.27" ry="18"/>
<text text-anchor="middle" x="503" y="-167.8" font-family="Times,serif" font-size="14.00">PatchAddressProvider</text>
</g>
<!-- PatchAddressProvider&#45;&gt;AddressModule -->
<g id="edge5" class="edge">
<title>PatchAddressProvider&#45;&gt;AddressModule</title>
<path fill="none" stroke="black" d="M576.34,-183.88C576.34,-183.88 576.34,-219.99 576.34,-219.99"/>
<polygon fill="black" stroke="black" points="572.84,-219.99 576.34,-229.99 579.84,-219.99 572.84,-219.99"/>
</g>
<!-- AuthModule -->
<g id="node7" class="node">
<title>AuthModule</title>
<polygon fill="#8dd3c7" stroke="black" points="1596.55,-266 1593.55,-270 1572.55,-270 1569.55,-266 1509.45,-266 1509.45,-230 1596.55,-230 1596.55,-266"/>
<text text-anchor="middle" x="1553" y="-243.8" font-family="Times,serif" font-size="14.00">AuthModule</text>
</g>
<!-- AuthModule&#45;&gt;AppModule -->
<g id="edge7" class="edge">
<title>AuthModule&#45;&gt;AppModule</title>
<path fill="none" stroke="black" d="M1522.03,-266.11C1522.03,-266.11 1522.03,-284.99 1522.03,-284.99"/>
<polygon fill="black" stroke="black" points="1518.53,-284.99 1522.03,-294.99 1525.53,-284.99 1518.53,-284.99"/>
</g>
<!-- AuthService  -->
<g id="node14" class="node">
<title>AuthService </title>
<polygon fill="#fb8072" stroke="black" points="1350.98,-190 1261.02,-190 1261.02,-154 1350.98,-154 1350.98,-190"/>
<text text-anchor="middle" x="1306" y="-167.8" font-family="Times,serif" font-size="14.00">AuthService </text>
</g>
<!-- AuthModule&#45;&gt;AuthService  -->
<g id="edge14" class="edge">
<title>AuthModule&#45;&gt;AuthService </title>
<path fill="none" stroke="black" stroke-dasharray="5,2" d="M1528.93,-229.89C1528.93,-220.1 1528.93,-210 1528.93,-210 1528.93,-210 1305.44,-210 1305.44,-210 1305.44,-210 1305.44,-200.11 1305.44,-200.11"/>
<polygon fill="black" stroke="black" points="1308.94,-200.11 1305.44,-190.11 1301.94,-200.11 1308.94,-200.11"/>
</g>
<!-- DeliveriesModule&#45;&gt;AppModule -->
<g id="edge8" class="edge">
<title>DeliveriesModule&#45;&gt;AppModule</title>
<path fill="none" stroke="black" d="M1471.36,-266.11C1471.36,-266.11 1471.36,-284.99 1471.36,-284.99"/>
<polygon fill="black" stroke="black" points="1467.86,-284.99 1471.36,-294.99 1474.86,-284.99 1467.86,-284.99"/>
</g>
<!-- OrdersModule -->
<g id="node9" class="node">
<title>OrdersModule</title>
<polygon fill="#8dd3c7" stroke="black" points="1961.64,-266 1958.64,-270 1937.64,-270 1934.64,-266 1864.36,-266 1864.36,-230 1961.64,-230 1961.64,-266"/>
<text text-anchor="middle" x="1913" y="-243.8" font-family="Times,serif" font-size="14.00">OrdersModule</text>
</g>
<!-- OrdersModule&#45;&gt;AppModule -->
<g id="edge9" class="edge">
<title>OrdersModule&#45;&gt;AppModule</title>
<path fill="none" stroke="black" d="M1913,-266.29C1913,-288.21 1913,-322 1913,-322 1913,-322 1544.81,-322 1544.81,-322"/>
<polygon fill="black" stroke="black" points="1544.81,-318.5 1534.81,-322 1544.81,-325.5 1544.81,-318.5"/>
</g>
<!-- ProductsModule&#45;&gt;AppModule -->
<g id="edge10" class="edge">
<title>ProductsModule&#45;&gt;AppModule</title>
<path fill="none" stroke="black" d="M1792,-266.11C1792,-285.34 1792,-313 1792,-313 1792,-313 1544.89,-313 1544.89,-313"/>
<polygon fill="black" stroke="black" points="1544.89,-309.5 1534.89,-313 1544.89,-316.5 1544.89,-309.5"/>
</g>
<!-- SettingsModule -->
<g id="node11" class="node">
<title>SettingsModule</title>
<polygon fill="#8dd3c7" stroke="black" points="1719.16,-266 1716.16,-270 1695.16,-270 1692.16,-266 1614.84,-266 1614.84,-230 1719.16,-230 1719.16,-266"/>
<text text-anchor="middle" x="1667" y="-243.8" font-family="Times,serif" font-size="14.00">SettingsModule</text>
</g>
<!-- SettingsModule&#45;&gt;AppModule -->
<g id="edge11" class="edge">
<title>SettingsModule&#45;&gt;AppModule</title>
<path fill="none" stroke="black" d="M1667,-266.03C1667,-282.4 1667,-304 1667,-304 1667,-304 1544.68,-304 1544.68,-304"/>
<polygon fill="black" stroke="black" points="1544.68,-300.5 1534.68,-304 1544.68,-307.5 1544.68,-300.5"/>
</g>
<!-- AppService -->
<g id="node13" class="node">
<title>AppService</title>
<ellipse fill="#fdb462" stroke="black" cx="1293" cy="-248" rx="56.74" ry="18"/>
<text text-anchor="middle" x="1293" y="-243.8" font-family="Times,serif" font-size="14.00">AppService</text>
</g>
<!-- AppService&#45;&gt;AppModule -->
<g id="edge13" class="edge">
<title>AppService&#45;&gt;AppModule</title>
<path fill="none" stroke="black" d="M1293,-266.03C1293,-282.4 1293,-304 1293,-304 1293,-304 1441.07,-304 1441.07,-304"/>
<polygon fill="black" stroke="black" points="1441.07,-307.5 1451.07,-304 1441.07,-300.5 1441.07,-307.5"/>
</g>
<!-- AuthService -->
<g id="node15" class="node">
<title>AuthService</title>
<ellipse fill="#fdb462" stroke="black" cx="1178" cy="-172" rx="59.11" ry="18"/>
<text text-anchor="middle" x="1178" y="-167.8" font-family="Times,serif" font-size="14.00">AuthService</text>
</g>
<!-- AuthService&#45;&gt;AuthModule -->
<g id="edge15" class="edge">
<title>AuthService&#45;&gt;AuthModule</title>
<path fill="none" stroke="black" d="M1216.03,-186.24C1216.03,-199.42 1216.03,-217 1216.03,-217 1216.03,-217 1519.08,-217 1519.08,-217 1519.08,-217 1519.08,-219.97 1519.08,-219.97"/>
<polygon fill="black" stroke="black" points="1515.58,-219.97 1519.08,-229.97 1522.58,-219.97 1515.58,-219.97"/>
</g>
<!-- DeliveryService -->
<g id="node16" class="node">
<title>DeliveryService</title>
<ellipse fill="#fdb462" stroke="black" cx="1465" cy="-172" rx="73.55" ry="18"/>
<text text-anchor="middle" x="1465" y="-167.8" font-family="Times,serif" font-size="14.00">DeliveryService</text>
</g>
<!-- DeliveryService&#45;&gt;DeliveriesModule -->
<g id="edge17" class="edge">
<title>DeliveryService&#45;&gt;DeliveriesModule</title>
<path fill="none" stroke="black" d="M1441.38,-189.25C1441.38,-189.25 1441.38,-219.76 1441.38,-219.76"/>
<polygon fill="black" stroke="black" points="1437.88,-219.76 1441.38,-229.76 1444.88,-219.76 1437.88,-219.76"/>
</g>
<!-- GeneralSettingsService -->
<g id="node17" class="node">
<title>GeneralSettingsService</title>
<ellipse fill="#fdb462" stroke="black" cx="1681" cy="-104" rx="101.84" ry="18"/>
<text text-anchor="middle" x="1681" y="-99.8" font-family="Times,serif" font-size="14.00">GeneralSettingsService</text>
</g>
<!-- GeneralSettingsModule -->
<g id="node18" class="node">
<title>GeneralSettingsModule</title>
<polygon fill="#8dd3c7" stroke="black" points="1746.47,-190 1743.47,-194 1722.47,-194 1719.47,-190 1597.53,-190 1597.53,-154 1746.47,-154 1746.47,-190"/>
<text text-anchor="middle" x="1672" y="-167.8" font-family="Times,serif" font-size="14.00">GeneralSettingsModule</text>
</g>
<!-- GeneralSettingsService&#45;&gt;GeneralSettingsModule -->
<g id="edge18" class="edge">
<title>GeneralSettingsService&#45;&gt;GeneralSettingsModule</title>
<path fill="none" stroke="black" d="M1672,-122.22C1672,-122.22 1672,-143.73 1672,-143.73"/>
<polygon fill="black" stroke="black" points="1668.5,-143.73 1672,-153.73 1675.5,-143.73 1668.5,-143.73"/>
</g>
<!-- GeneralSettingsModule&#45;&gt;SettingsModule -->
<g id="edge22" class="edge">
<title>GeneralSettingsModule&#45;&gt;SettingsModule</title>
<path fill="none" stroke="black" d="M1667,-190.01C1667,-190.01 1667,-219.85 1667,-219.85"/>
<polygon fill="black" stroke="black" points="1663.5,-219.85 1667,-229.85 1670.5,-219.85 1663.5,-219.85"/>
</g>
<!-- OrdersService -->
<g id="node19" class="node">
<title>OrdersService</title>
<ellipse fill="#fdb462" stroke="black" cx="1908" cy="-172" rx="66.03" ry="18"/>
<text text-anchor="middle" x="1908" y="-167.8" font-family="Times,serif" font-size="14.00">OrdersService</text>
</g>
<!-- OrdersService&#45;&gt;OrdersModule -->
<g id="edge19" class="edge">
<title>OrdersService&#45;&gt;OrdersModule</title>
<path fill="none" stroke="black" d="M1913,-190.01C1913,-190.01 1913,-219.85 1913,-219.85"/>
<polygon fill="black" stroke="black" points="1909.5,-219.85 1913,-229.85 1916.5,-219.85 1909.5,-219.85"/>
</g>
<!-- ProductsService -->
<g id="node20" class="node">
<title>ProductsService</title>
<ellipse fill="#fdb462" stroke="black" cx="2088" cy="-172" rx="73.57" ry="18"/>
<text text-anchor="middle" x="2088" y="-167.8" font-family="Times,serif" font-size="14.00">ProductsService</text>
</g>
<!-- ProductsService&#45;&gt;ProductsModule -->
<g id="edge21" class="edge">
<title>ProductsService&#45;&gt;ProductsModule</title>
<path fill="none" stroke="black" d="M2088,-190.24C2088,-197.43 2088,-204 2088,-204 2088,-204 1812.2,-204 1812.2,-204 1812.2,-204 1812.2,-219.85 1812.2,-219.85"/>
<polygon fill="black" stroke="black" points="1808.7,-219.85 1812.2,-229.85 1815.7,-219.85 1808.7,-219.85"/>
</g>
<!-- UsersService -->
<g id="node22" class="node">
<title>UsersService</title>
<ellipse fill="#fdb462" stroke="black" cx="1016" cy="-248" rx="61.95" ry="18"/>
<text text-anchor="middle" x="1016" y="-243.8" font-family="Times,serif" font-size="14.00">UsersService</text>
</g>
<!-- UsersService&#45;&gt;UsersModule -->
<g id="edge24" class="edge">
<title>UsersService&#45;&gt;UsersModule</title>
<path fill="none" stroke="black" d="M957.24,-254C927.86,-254 898.47,-254 898.47,-254 898.47,-254 898.47,-200.2 898.47,-200.2"/>
<polygon fill="black" stroke="black" points="901.97,-200.2 898.47,-190.2 894.97,-200.2 901.97,-200.2"/>
</g>
</g>
</svg>
