<?xml version="1.0" encoding="UTF-8" standalone="no"?>
<!DOCTYPE svg PUBLIC "-//W3C//DTD SVG 1.1//EN"
 "http://www.w3.org/Graphics/SVG/1.1/DTD/svg11.dtd">
<!-- Generated by graphviz version 2.47.0 (20210316.0004)
 -->
<!-- Title: dependencies Pages: 1 -->
<svg width="1071pt" height="298pt"
 viewBox="0.00 0.00 1071.00 298.00" xmlns="http://www.w3.org/2000/svg" xmlns:xlink="http://www.w3.org/1999/xlink">
<g id="graph0" class="graph" transform="scale(1 1) rotate(0) translate(4 294)">
<title>dependencies</title>
<polygon fill="white" stroke="transparent" points="-4,4 -4,-294 1067,-294 1067,4 -4,4"/>
<text text-anchor="start" x="510.51" y="-42.4" font-family="Times-12" font-weight="bold" font-size="14.00">Legend</text>
<polygon fill="#ffffb3" stroke="transparent" points="297.5,-10 297.5,-30 317.5,-30 317.5,-10 297.5,-10"/>
<text text-anchor="start" x="321.13" y="-15.4" font-family="Times-12" font-size="14.00"> &#160;Declarations</text>
<polygon fill="#8dd3c7" stroke="transparent" points="410.5,-10 410.5,-30 430.5,-30 430.5,-10 410.5,-10"/>
<text text-anchor="start" x="434.23" y="-15.4" font-family="Times-12" font-size="14.00"> &#160;Module</text>
<polygon fill="#80b1d3" stroke="transparent" points="496.5,-10 496.5,-30 516.5,-30 516.5,-10 496.5,-10"/>
<text text-anchor="start" x="520.28" y="-15.4" font-family="Times-12" font-size="14.00"> &#160;Bootstrap</text>
<polygon fill="#fdb462" stroke="transparent" points="593.5,-10 593.5,-30 613.5,-30 613.5,-10 593.5,-10"/>
<text text-anchor="start" x="617.17" y="-15.4" font-family="Times-12" font-size="14.00"> &#160;Providers</text>
<polygon fill="#fb8072" stroke="transparent" points="689.5,-10 689.5,-30 709.5,-30 709.5,-10 689.5,-10"/>
<text text-anchor="start" x="713.23" y="-15.4" font-family="Times-12" font-size="14.00"> &#160;Exports</text>
<g id="clust1" class="cluster">
<title>cluster_AppModule</title>
<polygon fill="none" stroke="black" stroke-dasharray="1,5" points="8,-146 8,-274 501,-274 501,-146 8,-146"/>
</g>
<g id="clust3" class="cluster">
<title>cluster_AppModule_imports</title>
<polygon fill="none" stroke="black" points="154,-154 154,-206 493,-206 493,-154 154,-154"/>
</g>
<g id="clust6" class="cluster">
<title>cluster_AppModule_providers</title>
<polygon fill="none" stroke="black" points="16,-154 16,-206 146,-206 146,-154 16,-154"/>
</g>
<g id="clust7" class="cluster">
<title>cluster_AuthModule</title>
<polygon fill="none" stroke="black" stroke-dasharray="1,5" points="509,-214 509,-282 773,-282 773,-214 509,-214"/>
</g>
<g id="clust10" class="cluster">
<title>cluster_AuthModule_exports</title>
<polygon fill="none" stroke="black" points="659,-222 659,-274 765,-274 765,-222 659,-222"/>
</g>
<g id="clust12" class="cluster">
<title>cluster_AuthModule_providers</title>
<polygon fill="none" stroke="black" points="517,-222 517,-274 651,-274 651,-222 517,-222"/>
</g>
<g id="clust13" class="cluster">
<title>cluster_ProductsModule</title>
<polygon fill="none" stroke="black" stroke-dasharray="1,5" points="126,-70 126,-138 306,-138 306,-70 126,-70"/>
</g>
<g id="clust18" class="cluster">
<title>cluster_ProductsModule_providers</title>
<polygon fill="none" stroke="black" points="134,-78 134,-130 298,-130 298,-78 134,-78"/>
</g>
<g id="clust19" class="cluster">
<title>cluster_UsersModule</title>
<polygon fill="none" stroke="black" stroke-dasharray="1,5" points="781,-214 781,-282 1055,-282 1055,-214 781,-214"/>
</g>
<g id="clust22" class="cluster">
<title>cluster_UsersModule_exports</title>
<polygon fill="none" stroke="black" points="937,-222 937,-274 1047,-274 1047,-222 937,-222"/>
</g>
<g id="clust24" class="cluster">
<title>cluster_UsersModule_providers</title>
<polygon fill="none" stroke="black" points="789,-222 789,-274 929,-274 929,-222 789,-222"/>
</g>
<!-- AuthModule -->
<g id="node1" class="node">
<title>AuthModule</title>
<polygon fill="#8dd3c7" stroke="black" points="375.55,-198 372.55,-202 351.55,-202 348.55,-198 288.45,-198 288.45,-162 375.55,-162 375.55,-198"/>
<text text-anchor="middle" x="332" y="-175.8" font-family="Times,serif" font-size="14.00">AuthModule</text>
</g>
<!-- AppModule -->
<g id="node4" class="node">
<title>AppModule</title>
<polygon fill="#8dd3c7" stroke="black" points="315.66,-266 312.66,-270 291.66,-270 288.66,-266 232.34,-266 232.34,-230 315.66,-230 315.66,-266"/>
<text text-anchor="middle" x="274" y="-243.8" font-family="Times,serif" font-size="14.00">AppModule</text>
</g>
<!-- AuthModule&#45;&gt;AppModule -->
<g id="edge1" class="edge">
<title>AuthModule&#45;&gt;AppModule</title>
<path fill="none" stroke="black" d="M302.03,-198.22C302.03,-198.22 302.03,-219.73 302.03,-219.73"/>
<polygon fill="black" stroke="black" points="298.53,-219.73 302.03,-229.73 305.53,-219.73 298.53,-219.73"/>
</g>
<!-- AuthService  -->
<g id="node6" class="node">
<title>AuthService </title>
<polygon fill="#fb8072" stroke="black" points="756.98,-266 667.02,-266 667.02,-230 756.98,-230 756.98,-266"/>
<text text-anchor="middle" x="712" y="-243.8" font-family="Times,serif" font-size="14.00">AuthService </text>
</g>
<!-- AuthModule&#45;&gt;AuthService  -->
<g id="edge5" class="edge">
<title>AuthModule&#45;&gt;AuthService </title>
<path fill="none" stroke="black" stroke-dasharray="5,2" d="M335.81,-198.19C335.81,-206.28 335.81,-214 335.81,-214 335.81,-214 712,-214 712,-214 712,-214 712,-219.81 712,-219.81"/>
<polygon fill="black" stroke="black" points="708.5,-219.81 712,-229.81 715.5,-219.81 708.5,-219.81"/>
</g>
<!-- ProductsModule -->
<g id="node2" class="node">
<title>ProductsModule</title>
<polygon fill="#8dd3c7" stroke="black" points="270.04,-198 267.04,-202 246.04,-202 243.04,-198 161.96,-198 161.96,-162 270.04,-162 270.04,-198"/>
<text text-anchor="middle" x="216" y="-175.8" font-family="Times,serif" font-size="14.00">ProductsModule</text>
</g>
<!-- ProductsModule&#45;&gt;AppModule -->
<g id="edge2" class="edge">
<title>ProductsModule&#45;&gt;AppModule</title>
<path fill="none" stroke="black" d="M251.22,-198.22C251.22,-198.22 251.22,-219.73 251.22,-219.73"/>
<polygon fill="black" stroke="black" points="247.72,-219.73 251.22,-229.73 254.72,-219.73 247.72,-219.73"/>
</g>
<!-- UsersModule -->
<g id="node3" class="node">
<title>UsersModule</title>
<polygon fill="#8dd3c7" stroke="black" points="484.92,-198 481.92,-202 460.92,-202 457.92,-198 393.08,-198 393.08,-162 484.92,-162 484.92,-198"/>
<text text-anchor="middle" x="439" y="-175.8" font-family="Times,serif" font-size="14.00">UsersModule</text>
</g>
<!-- UsersModule&#45;&gt;AppModule -->
<g id="edge3" class="edge">
<title>UsersModule&#45;&gt;AppModule</title>
<path fill="none" stroke="black" d="M439,-198.27C439,-216.56 439,-242 439,-242 439,-242 326.06,-242 326.06,-242"/>
<polygon fill="black" stroke="black" points="326.06,-238.5 316.06,-242 326.06,-245.5 326.06,-238.5"/>
</g>
<!-- UsersService  -->
<g id="node9" class="node">
<title>UsersService </title>
<polygon fill="#fb8072" stroke="black" points="1038.85,-266 945.15,-266 945.15,-230 1038.85,-230 1038.85,-266"/>
<text text-anchor="middle" x="992" y="-243.8" font-family="Times,serif" font-size="14.00">UsersService </text>
</g>
<!-- UsersModule&#45;&gt;UsersService  -->
<g id="edge8" class="edge">
<title>UsersModule&#45;&gt;UsersService </title>
<path fill="none" stroke="black" stroke-dasharray="5,2" d="M484.72,-174C617.22,-174 992,-174 992,-174 992,-174 992,-219.71 992,-219.71"/>
<polygon fill="black" stroke="black" points="988.5,-219.71 992,-229.71 995.5,-219.71 988.5,-219.71"/>
</g>
<!-- AppService -->
<g id="node5" class="node">
<title>AppService</title>
<ellipse fill="#fdb462" stroke="black" cx="81" cy="-180" rx="56.74" ry="18"/>
<text text-anchor="middle" x="81" y="-175.8" font-family="Times,serif" font-size="14.00">AppService</text>
</g>
<!-- AppService&#45;&gt;AppModule -->
<g id="edge4" class="edge">
<title>AppService&#45;&gt;AppModule</title>
<path fill="none" stroke="black" d="M81,-198.22C81,-218.37 81,-248 81,-248 81,-248 222.12,-248 222.12,-248"/>
<polygon fill="black" stroke="black" points="222.12,-251.5 232.12,-248 222.12,-244.5 222.12,-251.5"/>
</g>
<!-- AuthService -->
<g id="node7" class="node">
<title>AuthService</title>
<ellipse fill="#fdb462" stroke="black" cx="584" cy="-248" rx="59.11" ry="18"/>
<text text-anchor="middle" x="584" y="-243.8" font-family="Times,serif" font-size="14.00">AuthService</text>
</g>
<!-- AuthService&#45;&gt;AuthModule -->
<g id="edge6" class="edge">
<title>AuthService&#45;&gt;AuthModule</title>
<path fill="none" stroke="black" d="M527.88,-254C460.31,-254 355.79,-254 355.79,-254 355.79,-254 355.79,-208.29 355.79,-208.29"/>
<polygon fill="black" stroke="black" points="359.29,-208.29 355.79,-198.29 352.29,-208.29 359.29,-208.29"/>
</g>
<!-- ProductsService -->
<g id="node8" class="node">
<title>ProductsService</title>
<ellipse fill="#fdb462" stroke="black" cx="216" cy="-104" rx="73.57" ry="18"/>
<text text-anchor="middle" x="216" y="-99.8" font-family="Times,serif" font-size="14.00">ProductsService</text>
</g>
<!-- ProductsService&#45;&gt;ProductsModule -->
<g id="edge7" class="edge">
<title>ProductsService&#45;&gt;ProductsModule</title>
<path fill="none" stroke="black" d="M216,-122.01C216,-122.01 216,-151.85 216,-151.85"/>
<polygon fill="black" stroke="black" points="212.5,-151.85 216,-161.85 219.5,-151.85 212.5,-151.85"/>
</g>
<!-- UsersService -->
<g id="node10" class="node">
<title>UsersService</title>
<ellipse fill="#fdb462" stroke="black" cx="859" cy="-248" rx="61.95" ry="18"/>
<text text-anchor="middle" x="859" y="-243.8" font-family="Times,serif" font-size="14.00">UsersService</text>
</g>
<!-- UsersService&#45;&gt;UsersModule -->
<g id="edge9" class="edge">
<title>UsersService&#45;&gt;UsersModule</title>
<path fill="none" stroke="black" d="M859,-229.73C859,-211.44 859,-186 859,-186 859,-186 494.75,-186 494.75,-186"/>
<polygon fill="black" stroke="black" points="494.75,-182.5 484.75,-186 494.75,-189.5 494.75,-182.5"/>
</g>
</g>
</svg>
